%TF.GenerationSoftware,KiCad,Pcbnew,7.0.6*%
%TF.CreationDate,2024-05-09T23:31:48-07:00*%
%TF.ProjectId,PCB final,50434220-6669-46e6-916c-2e6b69636164,rev?*%
%TF.SameCoordinates,Original*%
%TF.FileFunction,Soldermask,Top*%
%TF.FilePolarity,Negative*%
%FSLAX46Y46*%
G04 Gerber Fmt 4.6, Leading zero omitted, Abs format (unit mm)*
G04 Created by KiCad (PCBNEW 7.0.6) date 2024-05-09 23:31:48*
%MOMM*%
%LPD*%
G01*
G04 APERTURE LIST*
G04 Aperture macros list*
%AMRoundRect*
0 Rectangle with rounded corners*
0 $1 Rounding radius*
0 $2 $3 $4 $5 $6 $7 $8 $9 X,Y pos of 4 corners*
0 Add a 4 corners polygon primitive as box body*
4,1,4,$2,$3,$4,$5,$6,$7,$8,$9,$2,$3,0*
0 Add four circle primitives for the rounded corners*
1,1,$1+$1,$2,$3*
1,1,$1+$1,$4,$5*
1,1,$1+$1,$6,$7*
1,1,$1+$1,$8,$9*
0 Add four rect primitives between the rounded corners*
20,1,$1+$1,$2,$3,$4,$5,0*
20,1,$1+$1,$4,$5,$6,$7,0*
20,1,$1+$1,$6,$7,$8,$9,0*
20,1,$1+$1,$8,$9,$2,$3,0*%
G04 Aperture macros list end*
%ADD10C,3.200000*%
%ADD11R,1.700000X1.700000*%
%ADD12O,1.700000X1.700000*%
%ADD13C,2.000000*%
%ADD14C,1.320800*%
%ADD15RoundRect,0.250000X0.275000X-0.400000X0.275000X0.400000X-0.275000X0.400000X-0.275000X-0.400000X0*%
%ADD16R,2.000000X4.600000*%
%ADD17O,2.000000X4.200000*%
%ADD18O,4.200000X2.000000*%
%ADD19R,1.600000X1.600000*%
%ADD20C,1.600000*%
%ADD21R,1.905000X2.000000*%
%ADD22O,1.905000X2.000000*%
%ADD23C,1.700000*%
%ADD24C,1.712000*%
G04 APERTURE END LIST*
D10*
%TO.C,REF\u002A\u002A*%
X30480000Y-66040000D03*
%TD*%
D11*
%TO.C,FAN2*%
X98630000Y-116840000D03*
D12*
X98630000Y-119380000D03*
X98630000Y-121920000D03*
X98630000Y-124460000D03*
%TD*%
D10*
%TO.C,REF\u002A\u002A*%
X101600000Y-66040000D03*
%TD*%
D13*
%TO.C,SW1*%
X67650000Y-136040000D03*
X67650000Y-129540000D03*
X72150000Y-136040000D03*
X72150000Y-129540000D03*
%TD*%
%TO.C,SW2*%
X76200000Y-136040000D03*
X76200000Y-129540000D03*
X80700000Y-136040000D03*
X80700000Y-129540000D03*
%TD*%
D14*
%TO.C,TN0702N3-G1*%
X74930000Y-113030000D03*
X76200000Y-111760000D03*
X77470000Y-113030000D03*
%TD*%
D15*
%TO.C,C1*%
X71120000Y-104140000D03*
X71120000Y-102190000D03*
%TD*%
D10*
%TO.C,REF\u002A\u002A*%
X101600000Y-142240000D03*
%TD*%
D13*
%TO.C,SW3*%
X96520000Y-136040000D03*
X96520000Y-129540000D03*
X101020000Y-136040000D03*
X101020000Y-129540000D03*
%TD*%
D15*
%TO.C,C2*%
X76470000Y-104140000D03*
X76470000Y-102190000D03*
%TD*%
D16*
%TO.C,BarrelJack1*%
X87630000Y-102250000D03*
D17*
X93930000Y-102250000D03*
D18*
X90530000Y-97450000D03*
%TD*%
D19*
%TO.C,ESP32FeatherBoard1*%
X40826000Y-76200000D03*
D20*
X40826000Y-78740000D03*
X40826000Y-81280000D03*
X40826000Y-83820000D03*
X40826000Y-86360000D03*
X40826000Y-88900000D03*
X40826000Y-91440000D03*
X40826000Y-93980000D03*
X40826000Y-96520000D03*
X40826000Y-99060000D03*
X40826000Y-101600000D03*
X40826000Y-104140000D03*
X40826000Y-106680000D03*
X40826000Y-109220000D03*
X40826000Y-111760000D03*
X40826000Y-114300000D03*
X61146000Y-114300000D03*
X61146000Y-111760000D03*
X61146000Y-109220000D03*
X61146000Y-106680000D03*
X61146000Y-104140000D03*
X61146000Y-101600000D03*
X61146000Y-99060000D03*
X61146000Y-96520000D03*
X61146000Y-93980000D03*
X61146000Y-91440000D03*
X61146000Y-88900000D03*
X61146000Y-86360000D03*
%TD*%
D10*
%TO.C,REF\u002A\u002A*%
X30480000Y-142240000D03*
%TD*%
D21*
%TO.C,LM7805*%
X73660000Y-124460000D03*
D22*
X76200000Y-124460000D03*
X78740000Y-124460000D03*
%TD*%
D11*
%TO.C,OLED-SSD1306*%
X54464000Y-135890000D03*
D23*
X54464000Y-133350000D03*
X54464000Y-130810000D03*
X54464000Y-128270000D03*
%TD*%
D24*
%TO.C,MH-Z19B1*%
X43180000Y-129540000D03*
X38100000Y-129540000D03*
X38100000Y-132080000D03*
X43180000Y-127000000D03*
X43180000Y-132080000D03*
X43180000Y-134620000D03*
X38100000Y-127000000D03*
X38100000Y-134620000D03*
X38100000Y-137160000D03*
%TD*%
D11*
%TO.C,FAN1*%
X91440000Y-116840000D03*
D12*
X91440000Y-119380000D03*
X91440000Y-121920000D03*
X91440000Y-124460000D03*
%TD*%
D13*
%TO.C,SW4*%
X86360000Y-136040000D03*
X86360000Y-129540000D03*
X90860000Y-136040000D03*
X90860000Y-129540000D03*
%TD*%
M02*
