M48
; DRILL file {KiCad 7.0.6} date Thu May  9 00:59:34 2024
; FORMAT={-:-/ absolute / inch / decimal}
; #@! TF.CreationDate,2024-05-09T00:59:34-07:00
; #@! TF.GenerationSoftware,Kicad,Pcbnew,7.0.6
; #@! TF.FileFunction,Plated,1,2,PTH
FMAT,2
INCH
; #@! TA.AperFunction,Plated,PTH,ViaDrill
T1C0.0315
; #@! TA.AperFunction,Plated,PTH,ComponentDrill
T2C0.0315
; #@! TA.AperFunction,Plated,PTH,ComponentDrill
T3C0.0320
; #@! TA.AperFunction,Plated,PTH,ComponentDrill
T4C0.0394
; #@! TA.AperFunction,Plated,PTH,ComponentDrill
T5C0.0433
; #@! TA.AperFunction,Plated,PTH,ComponentDrill
T6C0.0472
%
G90
G05
T1
X2.6Y-4.8
X2.7Y-5.6
X3.0Y-3.8
T2
X1.6073Y-3.0
X1.6073Y-3.1
X1.6073Y-3.2
X1.6073Y-3.3
X1.6073Y-3.4
X1.6073Y-3.5
X1.6073Y-3.6
X1.6073Y-3.7
X1.6073Y-3.8
X1.6073Y-3.9
X1.6073Y-4.0
X1.6073Y-4.1
X1.6073Y-4.2
X1.6073Y-4.3
X1.6073Y-4.4
X1.6073Y-4.5
X2.4073Y-3.4
X2.4073Y-3.5
X2.4073Y-3.6
X2.4073Y-3.7
X2.4073Y-3.8
X2.4073Y-3.9
X2.4073Y-4.0
X2.4073Y-4.1
X2.4073Y-4.2
X2.4073Y-4.3
X2.4073Y-4.4
X2.4073Y-4.5
T3
X2.95Y-4.45
X3.0Y-4.4
X3.05Y-4.45
T4
X1.5Y-5.0
X1.5Y-5.1
X1.5Y-5.2
X1.5Y-5.3
X1.5Y-5.4
X1.7Y-5.0
X1.7Y-5.1
X1.7Y-5.2
X1.7Y-5.3
X2.1443Y-5.05
X2.1443Y-5.15
X2.1443Y-5.25
X2.1443Y-5.35
X3.6Y-4.6
X3.6Y-4.7
X3.6Y-4.8
X3.6Y-4.9
X3.8831Y-4.6
X3.8831Y-4.7
X3.8831Y-4.8
X3.8831Y-4.9
T5
X2.6634Y-5.1
X2.6634Y-5.3559
X2.8406Y-5.1
X2.8406Y-5.3559
X3.0Y-5.1
X3.0Y-5.3559
X3.1772Y-5.1
X3.1772Y-5.3559
X3.4Y-5.1
X3.4Y-5.3559
X3.5772Y-5.1
X3.5772Y-5.3559
X3.8Y-5.1
X3.8Y-5.3559
X3.9772Y-5.1
X3.9772Y-5.3559
T6
X2.9Y-4.9
X3.0Y-4.9
X3.1Y-4.9
T4
G00X3.45Y-4.0768
M15
G01X3.45Y-3.9744
M16
G05
G00X3.5209Y-3.8366
M15
G01X3.6075Y-3.8366
M16
G05
G00X3.698Y-4.0689
M15
G01X3.698Y-3.9823
M16
G05
T0
M30
